<svg width="47" height="35" viewBox="0 0 47 35" fill="none" xmlns="http://www.w3.org/2000/svg">
    <rect width="47" height="35" fill="white" />
    <mask id="mask0_156_1206" style="mask-type:alpha" maskUnits="userSpaceOnUse" x="6" y="0" width="35" height="35">
        <rect x="6" width="34.9056" height="34.9056" fill="#D9D9D9" />
    </mask>
    <g mask="url(#mask0_156_1206)">
        <path d="M6.00195 7.67871H40.9071V27.5049H6.00195C6.00195 22.241 6.00195 12.9083 6.00195 7.67871Z"
            fill="#016FD0" />
        <path
            d="M12.7607 24.4367V18.9702H18.5665L19.1896 19.7797L19.8332 18.9702H40.9072V24.0597C40.9072 24.0597 40.3561 24.4311 39.7187 24.4367H28.0496L27.3473 23.5749V24.4367H25.046V22.9658C25.046 22.9658 24.7315 23.1711 24.0519 23.1711H23.2686V24.4367H19.784L19.162 23.6098L18.5306 24.4367H12.7611H12.7607Z"
            fill="white" />
        <path
            d="M6.00195 14.8497L7.30706 11.8066H9.56438L10.3051 13.5111V11.8066H13.1111L13.5519 13.0384L13.9795 11.8066H26.5754V12.4259C26.5754 12.4259 27.2376 11.8066 28.3259 11.8066L32.4126 11.821L33.1404 13.503V11.8066H35.4885L36.1349 12.7728V11.8066H38.5046V17.2731H36.1349L35.5157 16.3038V17.2731H32.0657L31.7187 16.4113H30.7913L30.4499 17.2731H28.1102C27.1737 17.2731 26.5754 16.6665 26.5754 16.6665V17.2731H23.0479L22.3477 16.4113V17.2731H9.22998L8.88338 16.4113H7.95874L7.61457 17.2731H6.00195V14.8497Z"
            fill="white" />
        <path
            d="M7.76843 12.4814L6.00781 16.5748H7.1541L7.47907 15.7552H9.36744L9.69066 16.5748H10.8621L9.1032 12.4818H7.76843V12.4814ZM8.41976 13.434L8.99535 14.8662H7.84243L8.41976 13.434Z"
            fill="#016FD0" />
        <path
            d="M10.9837 16.5738V12.4808L12.6124 12.4868L13.5598 15.1256L14.4844 12.4805H16.1001V16.5735H15.0767V13.5573L13.9919 16.5735H13.0945L12.0068 13.5573V16.5735H10.9834L10.9837 16.5738Z"
            fill="#016FD0" />
        <path
            d="M16.7998 16.5735V12.4805H20.1388V13.396H17.8337V14.0962H20.0851V14.958H17.8337V15.6851H20.1388V16.5738H16.7998V16.5735Z"
            fill="#016FD0" />
        <path
            d="M20.7314 12.4814V16.5744H21.7549V15.1203H22.1856L23.4125 16.5744H24.6632L23.3169 15.0665C23.8694 15.0198 24.4394 14.5457 24.4394 13.8092C24.4394 12.9478 23.7633 12.4814 23.009 12.4814H20.7318H20.7314ZM21.7545 13.397H22.9242C23.2048 13.397 23.409 13.6166 23.409 13.8277C23.409 14.0996 23.1444 14.2585 22.9395 14.2585H21.7549V13.3967L21.7545 13.397Z"
            fill="#016FD0" />
        <path d="M25.9021 16.5734H24.8574V12.4805H25.9021V16.5734Z" fill="#016FD0" />
        <path
            d="M28.3795 16.5734H28.154C27.0629 16.5734 26.4004 15.7137 26.4004 14.5437C26.4004 13.3737 27.0556 12.4805 28.4336 12.4805H29.5645V13.4498H28.3921C27.8326 13.4498 27.4371 13.8864 27.4371 14.5538C27.4371 15.3465 27.8894 15.6795 28.5411 15.6795H28.8102L28.3795 16.5734Z"
            fill="#016FD0" />
        <path
            d="M30.6063 12.4814L28.8457 16.5744H29.992L30.317 15.7549H32.2053L32.5285 16.5744H33.7L31.9411 12.4814H30.6063ZM31.2577 13.434L31.8332 14.8662H30.6803L31.2577 13.434Z"
            fill="#016FD0" />
        <path
            d="M33.8197 16.5734V12.4805H35.1206L36.7817 15.0523V12.4805H37.8052V16.5734H36.5461L34.8428 13.9346V16.5734H33.8193H33.8197Z"
            fill="#016FD0" />
        <path
            d="M13.4609 23.7365V19.6436H16.8V20.5591H14.4948V21.2593H16.7462V22.1211H14.4948V22.8482H16.8V23.7369H13.4609V23.7365Z"
            fill="#016FD0" />
        <path
            d="M29.8232 23.7365V19.6436H33.1623V20.5591H30.8571V21.2593H33.0977V22.1211H30.8571V22.8482H33.1623V23.7369H29.8232V23.7365Z"
            fill="#016FD0" />
        <path
            d="M16.9294 23.7364L18.5553 21.715L16.8906 19.6431H18.1797L19.171 20.9237L20.1658 19.6431H21.4046L19.7619 21.6896L21.3906 23.736H20.1016L19.1389 22.4756L18.1996 23.736H16.929L16.9294 23.7364Z"
            fill="#016FD0" />
        <path
            d="M21.5127 19.6445V23.7375H22.563V22.445H23.6402C24.5515 22.445 25.2423 21.9615 25.2423 21.0212C25.2423 20.2421 24.7006 19.6445 23.7732 19.6445H21.5127ZM22.563 20.5702H23.6974C23.992 20.5702 24.2025 20.7507 24.2025 21.0414C24.2025 21.3147 23.9931 21.5127 23.6943 21.5127H22.5633V20.5702H22.563Z"
            fill="#016FD0" />
        <path
            d="M25.6865 19.6436V23.7365H26.7099V22.2824H27.1407L28.3676 23.7365H29.6182L28.272 22.2286C28.8245 22.1819 29.3945 21.7078 29.3945 20.9713C29.3945 20.1099 28.7184 19.6436 27.9641 19.6436H25.6869H25.6865ZM26.7096 20.5591H27.8793C28.1599 20.5591 28.3641 20.7787 28.3641 20.9898C28.3641 21.2618 28.0995 21.4206 27.8946 21.4206H26.7099V20.5588L26.7096 20.5591Z"
            fill="#016FD0" />
        <path
            d="M33.6357 23.7365V22.8479H35.6836C35.9866 22.8479 36.1178 22.6841 36.1178 22.5044C36.1178 22.3246 35.9869 22.1585 35.6836 22.1585H34.7583C33.9537 22.1585 33.5059 21.6684 33.5059 20.9326C33.5059 20.2764 33.916 19.6436 35.1115 19.6436H37.1042L36.6735 20.5644H34.9502C34.6207 20.5644 34.5195 20.7371 34.5195 20.9022C34.5195 21.0673 34.6448 21.259 34.8965 21.259H35.8658C36.7625 21.259 37.1517 21.7675 37.1517 22.4339C37.1517 23.1501 36.7182 23.7365 35.8169 23.7365H33.6361H33.6357Z"
            fill="#016FD0" />
        <path
            d="M37.3916 23.7365V22.8479H39.4395C39.7424 22.8479 39.8737 22.6841 39.8737 22.5044C39.8737 22.3246 39.7428 22.1585 39.4395 22.1585H38.5141C37.7096 22.1585 37.2617 21.6684 37.2617 20.9326C37.2617 20.2764 37.6719 19.6436 38.8674 19.6436H40.8601L40.4294 20.5644H38.7061C38.3766 20.5644 38.2754 20.7371 38.2754 20.9022C38.2754 21.0673 38.4007 21.259 38.6523 21.259H39.6217C40.5184 21.259 40.9076 21.7675 40.9076 22.4339C40.9076 23.1501 40.474 23.7365 39.5728 23.7365H37.3919H37.3916Z"
            fill="#016FD0" />
    </g>
</svg>