<svg width="20" height="20" viewBox="0 0 20 20" fill="none" xmlns="http://www.w3.org/2000/svg">
    <g clip-path="url(#clip0_156_1191)">
        <mask id="mask0_156_1191" style="mask-type:luminance" maskUnits="userSpaceOnUse" x="0" y="0" width="20"
            height="20">
            <path d="M19.2971 0H0.150391V19.1467H19.2971V0Z" fill="white" />
        </mask>
        <g mask="url(#mask0_156_1191)">
            <path
                d="M18.6406 2.04236H0.806848C0.442149 2.04236 0.150391 2.33412 0.150391 2.69882V16.4479C0.150391 16.8126 0.442149 17.1044 0.806848 17.1044H18.6406C19.0053 17.1044 19.2971 16.8126 19.2971 16.4479V2.69882C19.2971 2.33412 19.0053 2.04236 18.6406 2.04236ZM17.9841 15.7915H1.46331V3.35527H17.9933V15.7915H17.9841Z"
                fill="#6E1719" />
            <path
                d="M9.72431 10.2299C11.7393 10.2299 13.4442 8.66165 13.6084 6.65581C13.6357 6.29111 13.3713 5.98112 13.0157 5.94465C12.6601 5.92641 12.341 6.1817 12.3046 6.53728C12.1951 7.86843 11.0555 8.90782 9.72431 8.90782C8.39317 8.90782 7.25348 7.86843 7.14407 6.53728C7.11672 6.17258 6.76114 5.90818 6.43291 5.94465C6.06821 5.972 5.80381 6.29111 5.84028 6.65581C6.01351 8.66165 7.71847 10.2299 9.72431 10.2299Z"
                fill="#6E1719" />
        </g>
    </g>
    <defs>
        <clipPath id="clip0_156_1191">
            <rect width="19.1467" height="19.1467" fill="white" transform="translate(0.150391)" />
        </clipPath>
    </defs>
</svg>