<svg width="20" height="20" viewBox="0 0 20 20" fill="none" xmlns="http://www.w3.org/2000/svg">
    <g clip-path="url(#clip0_156_1186)">
        <path
            d="M9.56588 18.577C9.11905 18.577 8.68133 18.4129 8.35305 18.1211C7.67824 17.5283 7.03079 16.9812 6.45628 16.4888C6.41069 16.4523 6.37421 16.4158 6.32862 16.3793C4.5504 14.8656 3.0184 13.5615 1.92412 12.2393C0.610976 10.6526 0 9.12968 0 7.45177C0 5.77387 0.5745 4.27835 1.60495 3.1567C3.46524 1.12316 6.72074 0.749275 8.9549 2.48189C9.16464 2.64604 9.37438 2.82842 9.56588 3.01992C9.75738 2.8193 9.96712 2.64604 10.1769 2.48189C12.4201 0.749275 15.6665 1.12316 17.5359 3.14758C18.5664 4.26923 19.1409 5.79211 19.1409 7.44266C19.1409 9.0932 18.5299 10.6434 17.2168 12.2302C16.1134 13.5615 14.5814 14.8747 12.794 16.3884C12.1648 16.9173 11.49 17.501 10.7878 18.1211C10.4504 18.4129 10.0218 18.577 9.575 18.577H9.56588Z"
            fill="#AF2427" />
    </g>
    <defs>
        <clipPath id="clip0_156_1186">
            <rect width="19.15" height="19.15" fill="white" transform="translate(0 0.466553)" />
        </clipPath>
    </defs>
</svg>