<svg width="38" height="38" viewBox="0 0 38 38" fill="none" xmlns="http://www.w3.org/2000/svg">
    <g clip-path="url(#clip0_140_811)">
        <mask id="mask0_140_811" style="mask-type:luminance" maskUnits="userSpaceOnUse" x="2" y="0" width="35"
            height="38">
            <path
                d="M36.0325 16.6904H33.4097V13.997C33.4097 10.2615 31.9526 6.75565 29.321 4.11521C26.6894 1.46593 23.1747 0 19.4303 0C11.7121 0 5.43333 6.27879 5.43333 13.997V16.6904H2.81055V27.314H10.4405V16.6904H7.81768V13.997C7.81768 7.59459 13.0279 2.38435 19.4303 2.38435C22.53 2.38435 25.4442 3.59419 27.6254 5.80192C29.8155 7.99198 31.0165 10.9062 31.0165 13.997V16.6904H28.3937V27.314H30.99C30.8575 29.5571 29.0119 31.3498 26.7335 31.3498H26.4509C25.9211 29.4246 24.1725 27.994 22.0796 27.994C19.5716 27.994 17.5317 30.034 17.5317 32.5419C17.5317 35.0499 19.5716 37.0899 22.0796 37.0899C24.1725 37.0899 25.9211 35.6593 26.4509 33.7341H26.7423C30.3365 33.7341 33.2507 30.8729 33.3832 27.314H36.0325V16.6904ZM8.05611 24.9297H5.20373V19.0836H6.61667C6.61667 19.0836 6.61667 19.0836 6.6255 19.0836C6.63434 19.0836 6.6255 19.0836 6.63434 19.0836H8.04728V24.9297H8.05611ZM22.0884 34.7055C20.8963 34.7055 19.9249 33.7341 19.9249 32.5419C19.9249 31.3498 20.8963 30.3784 22.0884 30.3784C23.2806 30.3784 24.252 31.3498 24.252 32.5419C24.252 33.7341 23.2806 34.7055 22.0884 34.7055ZM33.6481 24.9297H30.7957V19.0836H32.2087C32.2087 19.0836 32.2087 19.0836 32.2175 19.0836C32.2263 19.0836 32.2175 19.0836 32.2263 19.0836H33.6393V24.9297H33.6481Z"
                fill="white" />
        </mask>
        <g mask="url(#mask0_140_811)">
            <path d="M37.9668 0H0.876953V37.0899H37.9668V0Z" fill="#9B9280" />
        </g>
    </g>
    <defs>
        <clipPath id="clip0_140_811">
            <rect width="37.0899" height="37.0899" fill="white" transform="translate(0.876953)" />
        </clipPath>
    </defs>
</svg>