<svg width="39" height="37" viewBox="0 0 39 37" fill="none" xmlns="http://www.w3.org/2000/svg">
    <mask id="mask0_140_801" style="mask-type:luminance" maskUnits="userSpaceOnUse" x="1" y="0" width="37" height="36">
        <path d="M37.5616 0.91748H1.82422V35.7832H37.5616V0.91748Z" fill="white" />
    </mask>
    <g mask="url(#mask0_140_801)">
        <path d="M1.82422 0.91748V35.7832H37.5616V0.91748H1.82422ZM35.2812 33.5584H4.1046V3.14225H35.2812V33.5584Z"
            fill="#9B9280" />
        <path
            d="M15.9561 18.11C16.1603 18.3092 16.4241 18.4089 16.6879 18.4089C16.9517 18.4089 17.2154 18.3092 17.4197 18.11C17.8281 17.7115 17.8281 17.0723 17.4197 16.6822L15.4881 14.7978H19.7511C22.7803 14.7978 25.2393 17.1969 25.2393 20.1521C25.2393 21.5883 24.6692 22.9331 23.6397 23.9459C22.6101 24.9503 21.2231 25.5148 19.7511 25.5148H13.2248C12.6547 25.5148 12.1867 25.9631 12.1867 26.5276C12.1867 27.0921 12.6462 27.5403 13.2248 27.5403H19.7511C21.7762 27.5403 23.6822 26.7766 25.1032 25.382C26.5327 23.9957 27.3155 22.1362 27.3155 20.1604C27.3155 16.0928 23.9205 12.7805 19.7511 12.7805H15.4881L17.4197 10.8961C17.8281 10.4977 17.8281 9.85845 17.4197 9.46828C17.0112 9.06982 16.356 9.06982 15.9561 9.46828L12.4419 12.8967C11.9399 13.3865 11.9399 14.1918 12.4419 14.6898L15.9476 18.11H15.9561Z"
            fill="#9B9280" />
    </g>
</svg>