<svg width="105" height="19" viewBox="0 0 105 19" fill="none" xmlns="http://www.w3.org/2000/svg">
    <g clip-path="url(#clip0_140_301)">
        <path
            d="M95.2967 16.3323C95.2951 16.3323 95.2934 16.3323 95.2916 16.3323C94.7208 16.3284 89.6741 16.2823 88.2442 15.8956C87.245 15.627 86.4561 14.8391 86.1868 13.8396C85.8127 12.4351 85.8365 9.73086 85.8391 9.51493C85.8366 9.3 85.8125 6.57342 86.1856 5.1573C86.1861 5.156 86.1864 5.15455 86.1868 5.15325C86.4531 4.16525 87.2597 3.3529 88.2418 3.08356C88.2442 3.08284 88.2468 3.08226 88.2493 3.08154C89.6629 2.71001 94.7196 2.66454 95.2916 2.66064H95.3019C95.8742 2.66454 100.934 2.71059 102.351 3.09785C103.348 3.36575 104.136 4.15269 104.406 5.1508C104.794 6.56793 104.758 9.30044 104.754 9.53109C104.757 9.75828 104.78 12.4382 104.408 13.8499C104.407 13.8513 104.407 13.8526 104.407 13.8539C104.137 14.8533 103.349 15.6413 102.348 15.9102C102.347 15.9106 102.345 15.9109 102.344 15.9114C100.931 16.2827 95.8738 16.3282 95.3019 16.3323C95.3001 16.3323 95.2984 16.3323 95.2967 16.3323ZM87.6143 5.53633C87.2858 6.78632 87.3168 9.47812 87.3171 9.50525V9.52474C87.3073 10.2713 87.3418 12.4332 87.6145 13.4571C87.7467 13.9475 88.1357 14.3359 88.629 14.4685C89.684 14.7539 93.7944 14.8437 95.2967 14.8542C96.8029 14.8437 100.919 14.7563 101.966 14.4824C102.458 14.3493 102.846 13.9622 102.979 13.4713C103.252 12.4323 103.286 10.2809 103.276 9.53917C103.276 9.53138 103.276 9.52359 103.276 9.51579C103.29 8.76031 103.263 6.57313 102.98 5.54095C102.98 5.53994 102.98 5.53893 102.98 5.53792C102.847 5.04543 102.458 4.65701 101.964 4.52436C100.92 4.23872 96.8026 4.14922 95.2967 4.13869C93.7915 4.14922 89.6791 4.23641 88.6287 4.51007C88.1448 4.64431 87.747 5.04659 87.6143 5.53633ZM93.4129 12.4893V6.50341L98.586 9.49645L93.4129 12.4893Z"
            fill="white" />
    </g>
    <g clip-path="url(#clip1_140_301)">
        <path
            d="M52.3784 0C47.1543 0 42.9189 4.23532 42.9189 9.45946C42.9189 14.6836 47.1543 18.9189 52.3784 18.9189C57.6025 18.9189 61.8379 14.6836 61.8379 9.45946C61.8379 4.23532 57.6025 0 52.3784 0ZM52.3725 16.7019C51.622 16.7019 50.9074 16.5888 50.2282 16.3804C50.5261 15.8978 50.9669 15.1115 51.1276 14.4804C51.217 14.1408 51.5803 12.7592 51.5803 12.7592C51.8127 13.2118 52.5033 13.5928 53.236 13.5928C55.4158 13.5928 56.9884 11.5856 56.9884 9.09032C56.9884 6.69589 55.0348 4.90931 52.5273 4.90931C49.4005 4.90931 47.7447 7.00554 47.7447 9.2869C47.7447 10.3529 48.3105 11.6691 49.2158 12.0918C49.3529 12.1576 49.4301 12.1277 49.46 11.9965C49.4837 11.8953 49.6089 11.4012 49.6625 11.1747C49.6802 11.1034 49.6743 11.0376 49.6148 10.9663C49.317 10.6031 49.0787 9.93576 49.0787 9.31646C49.0787 7.72018 50.2877 6.17784 52.3485 6.17784C54.1295 6.17784 55.3744 7.38688 55.3744 9.11988C55.3744 11.0735 54.3856 12.4314 53.0989 12.4314C52.3902 12.4314 51.8544 11.8417 52.027 11.1211C52.2354 10.2576 52.6286 9.32828 52.6286 8.70898C52.6286 8.15509 52.3307 7.69061 51.7114 7.69061C50.9846 7.69061 50.4012 8.44109 50.4012 9.44763C50.4012 10.0847 50.6155 10.5196 50.6155 10.5196C50.6155 10.5196 49.9008 13.551 49.7697 14.1171C49.6267 14.7423 49.6802 15.624 49.746 16.1956C47.0538 15.1414 45.1478 12.5209 45.1478 9.45355C45.1478 5.45693 48.3881 2.21706 52.3843 2.21706C56.3809 2.21706 59.6208 5.45693 59.609 9.46537C59.609 13.462 56.3687 16.7019 52.3725 16.7019Z"
            fill="white" />
    </g>
    <g clip-path="url(#clip2_140_301)">
        <path
            d="M18.9004 5.56221C18.8561 4.55698 18.6935 3.86589 18.4606 3.26705C18.2204 2.6314 17.8508 2.0623 17.3666 1.5892C16.8935 1.10875 16.3207 0.735411 15.6924 0.498936C15.0901 0.26607 14.4026 0.103512 13.3974 0.0591909C12.3846 0.0111163 12.0631 0 9.49451 0C6.92591 0 6.60441 0.0111163 5.59542 0.0554373C4.59018 0.0997583 3.89909 0.262461 3.3004 0.495183C2.6646 0.735411 2.0955 1.10499 1.62241 1.5892C1.14195 2.0623 0.768759 2.63515 0.532139 3.26344C0.299274 3.86589 0.136715 4.55323 0.092394 5.55846C0.0443195 6.5712 0.0332031 6.89271 0.0332031 9.46131C0.0332031 12.0299 0.0443195 12.3514 0.0886405 13.3604C0.132961 14.3656 0.295664 15.0567 0.52853 15.6556C0.768759 16.2912 1.14195 16.8603 1.62241 17.3334C2.0955 17.8139 2.66835 18.1872 3.29664 18.4237C3.89909 18.6565 4.58643 18.8191 5.59181 18.8634C6.60065 18.9079 6.92231 18.9189 9.4909 18.9189C12.0595 18.9189 12.381 18.9079 13.39 18.8634C14.3952 18.8191 15.0863 18.6565 15.685 18.4237C16.9565 17.9321 17.9617 16.9269 18.4533 15.6556C18.686 15.0531 18.8487 14.3656 18.893 13.3604C18.9373 12.3514 18.9485 12.0299 18.9485 9.46131C18.9485 6.89271 18.9447 6.5712 18.9004 5.56221ZM17.1967 13.2865C17.156 14.2104 17.0008 14.7094 16.8714 15.042C16.5535 15.8662 15.8994 16.5203 15.0752 16.8382C14.7426 16.9676 14.24 17.1228 13.3197 17.1633C12.3218 17.2078 12.0225 17.2188 9.49827 17.2188C6.97399 17.2188 6.67096 17.2078 5.6767 17.1633C4.75274 17.1228 4.2538 16.9676 3.92118 16.8382C3.51103 16.6866 3.1377 16.4464 2.83467 16.1323C2.52052 15.8255 2.28029 15.4559 2.12871 15.0458C1.99935 14.7131 1.84416 14.2104 1.80359 13.2902C1.75912 12.2924 1.74815 11.9929 1.74815 9.46867C1.74815 6.94439 1.75912 6.64137 1.80359 5.64725C1.84416 4.72329 1.99935 4.22435 2.12871 3.89173C2.28029 3.48144 2.52052 3.10824 2.83842 2.80507C3.14506 2.49093 3.51464 2.2507 3.92493 2.09926C4.25756 1.9699 4.76025 1.81471 5.68045 1.77399C6.67832 1.72967 6.97774 1.71856 9.50187 1.71856C12.0299 1.71856 12.3292 1.72967 13.3234 1.77399C14.2474 1.81471 14.7463 1.9699 15.079 2.09926C15.4891 2.2507 15.8624 2.49093 16.1655 2.80507C16.4796 3.11185 16.7198 3.48144 16.8714 3.89173C17.0008 4.22435 17.156 4.7269 17.1967 5.64725C17.241 6.64512 17.2521 6.94439 17.2521 9.46867C17.2521 11.9929 17.241 12.2886 17.1967 13.2865Z"
            fill="white" />
        <path
            d="M9.49477 4.60107C6.81169 4.60107 4.63477 6.77786 4.63477 9.46108C4.63477 12.1443 6.81169 14.3211 9.49477 14.3211C12.178 14.3211 14.3548 12.1443 14.3548 9.46108C14.3548 6.77786 12.178 4.60107 9.49477 4.60107ZM9.49477 12.6136C7.75413 12.6136 6.34221 11.2019 6.34221 9.46108C6.34221 7.72029 7.75413 6.30852 9.49477 6.30852C11.2356 6.30852 12.6473 7.72029 12.6473 9.46108C12.6473 11.2019 11.2356 12.6136 9.49477 12.6136Z"
            fill="white" />
        <path
            d="M15.6814 4.409C15.6814 5.03556 15.1734 5.54359 14.5467 5.54359C13.9201 5.54359 13.4121 5.03556 13.4121 4.409C13.4121 3.7823 13.9201 3.27441 14.5467 3.27441C15.1734 3.27441 15.6814 3.7823 15.6814 4.409Z"
            fill="white" />
    </g>
    <defs>
        <clipPath id="clip0_140_301">
            <rect width="18.9189" height="18.9189" fill="white" transform="translate(85.8379)" />
        </clipPath>
        <clipPath id="clip1_140_301">
            <rect width="18.9189" height="18.9189" fill="white" transform="translate(42.9189)" />
        </clipPath>
        <clipPath id="clip2_140_301">
            <rect width="18.9189" height="18.9189" fill="white" />
        </clipPath>
    </defs>
</svg>