<svg width="47" height="35" viewBox="0 0 47 35" fill="none" xmlns="http://www.w3.org/2000/svg">
    <rect width="47" height="35" fill="white" />
    <mask id="mask0_156_1205" style="mask-type:alpha" maskUnits="userSpaceOnUse" x="6" y="0" width="35" height="35">
        <rect x="6" width="34.9056" height="34.9056" fill="#D9D9D9" />
    </mask>
    <g mask="url(#mask0_156_1205)">
        <path d="M28.34 9.07617H18.5664V26.1799H28.34V9.07617Z" fill="#FF5A00" />
        <path
            d="M19.3446 17.6276C19.3446 14.1155 20.9655 10.9984 23.4528 8.98439C21.6223 7.51835 19.3132 6.63232 16.7945 6.63232C10.8278 6.63232 6 11.55 6 17.6276C6 23.7052 10.8278 28.6229 16.7945 28.6229C19.3132 28.6229 21.6223 27.7368 23.4528 26.2708C20.9621 24.2853 19.3446 21.1397 19.3446 17.6276Z"
            fill="#EB001B" />
        <path
            d="M40.9059 17.6276C40.9059 23.7052 36.0781 28.6229 30.1115 28.6229C27.5928 28.6229 25.2836 27.7368 23.4531 26.2708C25.9718 24.2532 27.5613 21.1397 27.5613 17.6276C27.5613 14.1155 25.9404 10.9984 23.4531 8.98439C25.2802 7.51835 27.5893 6.63232 30.108 6.63232C36.0781 6.63232 40.9059 11.582 40.9059 17.6276Z"
            fill="#F79E1B" />
    </g>
</svg>