<svg width="20" height="20" viewBox="0 0 20 20" fill="none" xmlns="http://www.w3.org/2000/svg">
    <g clip-path="url(#clip0_156_1132)">
        <mask id="mask0_156_1132" style="mask-type:luminance" maskUnits="userSpaceOnUse" x="0" y="0" width="20"
            height="20">
            <path d="M19.15 0.466553H0V19.6166H19.15V0.466553Z" fill="white" />
        </mask>
        <g mask="url(#mask0_156_1132)">
            <path
                d="M9.49547 18.4666C9.05193 18.4666 8.61744 18.3043 8.29157 18.0159C7.62172 17.4299 6.97904 16.8891 6.40877 16.4023C6.36351 16.3663 6.3273 16.3302 6.28204 16.2942C4.51691 14.7978 2.99619 13.5088 1.90996 12.2018C0.606479 10.6333 0 9.12798 0 7.46939C0 5.8108 0.570272 4.33249 1.59314 3.22376C3.43973 1.21363 6.67127 0.844049 8.889 2.55672C9.09719 2.71898 9.30538 2.89926 9.49547 3.08855C9.68556 2.89024 9.89376 2.71898 10.102 2.55672C12.3287 0.844049 15.5512 1.21363 17.4069 3.21475C18.4297 4.32348 19 5.82883 19 7.46037C19 9.09192 18.3935 10.6243 17.09 12.1928C15.9948 13.5088 14.474 14.8068 12.6999 16.3032C12.0753 16.826 11.4054 17.4029 10.7084 18.0159C10.3735 18.3043 9.94807 18.4666 9.50453 18.4666H9.49547ZM5.65746 3.07052C5.42211 3.07052 4.67985 3.07052 3.86517 3.49419C3.45784 3.70151 3.09576 3.97193 2.77894 4.31447C2.02763 5.12573 1.61124 6.24348 1.61124 7.46037C1.61124 8.67727 2.10005 9.90319 3.15007 11.1561C4.14578 12.355 5.62125 13.608 7.32301 15.0502L7.44974 15.1584C8.02906 15.6451 8.6808 16.204 9.35064 16.7899C9.35064 16.7899 9.41401 16.853 9.49547 16.853C9.56789 16.853 9.61315 16.799 9.6222 16.7899C9.98428 16.4835 10.6994 15.8615 11.6136 15.0863C13.3516 13.617 14.8271 12.355 15.8318 11.1561C16.8818 9.89417 17.3707 8.72234 17.3707 7.46037C17.3707 6.19841 16.9543 5.12573 16.203 4.31447C14.9085 2.91728 12.6636 2.62883 11.0886 3.83672C10.7446 4.09813 10.4278 4.43165 10.1472 4.81925L9.48642 5.72967L8.82563 4.81925C8.65364 4.55785 8.35493 4.17925 7.88423 3.83672C7.63983 3.65644 6.83421 3.08855 5.6484 3.07052H5.65746Z"
                fill="#8A8A8A" />
        </g>
    </g>
    <defs>
        <clipPath id="clip0_156_1132">
            <rect width="19.15" height="19.15" fill="white" transform="translate(0 0.466553)" />
        </clipPath>
    </defs>
</svg>