<svg width="148" height="45" viewBox="0 0 148 45" fill="none" xmlns="http://www.w3.org/2000/svg">
    <path d="M0 0.990967H11.741L23.351 30.2896L18.1512 45L0 0.990967Z" fill="#6E1719" />
    <path d="M49.6928 43.9835L61.4604 43.9719L43.5532 0L38.0908 14.8993L49.6928 43.9835Z" fill="#6E1719" />
    <path
        d="M57.9717 1.00732H69.303L69.2222 26.0123C69.2222 26.0123 69.1591 41.0222 74.2272 44.9438C74.2272 44.9438 61.4786 40.99 58.3943 28.1946C58.3943 28.1946 57.9329 25.3893 57.9749 23.2878C58.0169 21.1864 57.9717 1.00732 57.9717 1.00732Z"
        fill="#6E1719" />
    <path d="M89.7412 0.975342H99.6875L99.7505 43.9836H89.7412V0.975342Z" fill="#6E1719" />
    <path d="M117.19 33.9678L117.182 43.9315H107.346C107.346 43.9315 114.169 42.2442 117.19 33.9678Z" fill="#6E1719" />
    <path d="M125.745 0.975342L115.987 0.982768V11.0273C115.987 11.0273 117.64 4.06032 125.745 0.975342Z"
        fill="#6E1719" />
    <path d="M138.241 0.975098L147.999 0.982523V11.0271C147.999 11.0271 146.347 4.06008 138.241 0.975098Z"
        fill="#6E1719" />
    <path d="M136.915 0.975342H126.989V43.9836H136.915V0.975342Z" fill="#6E1719" />
</svg>