<svg width="1435" height="437" viewBox="0 0 1435 437" fill="none" xmlns="http://www.w3.org/2000/svg">
    <path d="M0 9.62354H113.84L226.41 294.146L175.993 437L0 9.62354Z" fill="#611214" />
    <path d="M481.818 427.129L595.917 427.016L422.289 0L369.326 144.689L481.818 427.129Z" fill="#611214" />
    <path
        d="M562.09 9.7832H671.957L671.174 252.609C671.174 252.609 670.563 398.372 719.703 436.455C719.703 436.455 596.093 398.059 566.187 273.802C566.187 273.802 561.714 246.56 562.121 226.152C562.529 205.744 562.09 9.7832 562.09 9.7832Z"
        fill="#611214" />
    <path d="M870.128 9.47119H966.567L967.178 427.129H870.128V9.47119Z" fill="#611214" />
    <path d="M1136.27 329.865L1136.19 426.624H1040.82C1040.82 426.624 1106.97 410.238 1136.27 329.865Z"
        fill="#611214" />
    <path d="M1219.22 9.4707L1124.61 9.54282V107.087C1124.61 107.087 1140.63 39.4293 1219.22 9.4707Z" fill="#611214" />
    <path d="M1340.38 9.4707L1434.99 9.54282V107.087C1434.99 107.087 1418.97 39.4293 1340.38 9.4707Z" fill="#611214" />
    <path d="M1327.52 9.47119H1231.28V427.129H1327.52V9.47119Z" fill="#611214" />
</svg>