<svg width="39" height="37" viewBox="0 0 39 37" fill="none" xmlns="http://www.w3.org/2000/svg">
    <mask id="mask0_140_794" style="mask-type:luminance" maskUnits="userSpaceOnUse" x="0" y="0" width="39" height="37">
        <path d="M38.5558 0H0.9375V36.7008H38.5558V0Z" fill="white" />
    </mask>
    <g mask="url(#mask0_140_794)">
        <path
            d="M38.5558 16.6291L36.2718 14.4008C35.0806 13.2386 34.0237 12.2162 32.5458 10.7657L32.3219 10.5472H26.5179V6.23926H0.9375V26.014H4.90533C4.90533 26.014 4.90533 26.0402 4.90533 26.0577C4.90533 28.4869 6.92955 30.4705 9.42848 30.4705C11.9274 30.4705 13.9516 28.4957 13.9516 26.0577C13.9516 26.0402 13.9516 26.0315 13.9516 26.014H27.2703C27.2703 26.014 27.2703 26.0402 27.2703 26.0577C27.2703 28.4869 29.2945 30.4705 31.7934 30.4705C34.2924 30.4705 36.3166 28.4957 36.3166 26.0577C36.3166 26.0402 36.3166 26.0315 36.3166 26.014H38.5826V16.6378L38.5558 16.6291ZM9.41953 28.9675C7.77149 28.9675 6.42798 27.6568 6.42798 26.0489C6.42798 24.4411 7.77149 23.1304 9.41953 23.1304C11.0676 23.1304 12.4111 24.4411 12.4111 26.0489C12.4111 27.6568 11.0676 28.9675 9.41953 28.9675ZM24.9863 24.511H13.6471C13.0022 22.8332 11.3631 21.6361 9.41953 21.6361C7.47591 21.6361 5.83683 22.8332 5.2009 24.511H2.4691V7.7335H24.9863V24.5197V24.511ZM31.7755 28.9675C30.1275 28.9675 28.784 27.6568 28.784 26.0489C28.784 24.4411 30.1275 23.1304 31.7755 23.1304C33.4236 23.1304 34.7671 24.4411 34.7671 26.0489C34.7671 27.6568 33.4236 28.9675 31.7755 28.9675ZM37.0242 24.511H35.9942C35.3493 22.8332 33.7102 21.6361 31.7666 21.6361C29.823 21.6361 28.1839 22.8332 27.539 24.511H26.509V12.0327H31.677C33.0384 13.3697 34.0505 14.3571 35.1791 15.4581L37.0152 17.2495V24.5197L37.0242 24.511Z"
            fill="#9B9280" />
    </g>
</svg>