<svg width="47" height="35" viewBox="0 0 47 35" fill="none" xmlns="http://www.w3.org/2000/svg">
    <rect width="47" height="35" fill="white" />
    <mask id="mask0_156_1207" style="mask-type:alpha" maskUnits="userSpaceOnUse" x="6" y="0" width="35" height="35">
        <rect x="6" width="34.9056" height="34.9056" fill="#D9D9D9" />
    </mask>
    <g mask="url(#mask0_156_1207)">
        <path d="M21.1255 22.8712H18.2979L20.0664 12.064H22.8939L21.1255 22.8712Z" fill="#00579F" />
        <path
            d="M31.3756 12.3283C30.8179 12.1096 29.9333 11.8682 28.8395 11.8682C26.0471 11.8682 24.0808 13.3397 24.0687 15.4436C24.0455 16.9958 25.4765 17.8579 26.5468 18.3755C27.6408 18.9044 28.0127 19.2496 28.0127 19.721C28.0016 20.445 27.1287 20.7787 26.3146 20.7787C25.1857 20.7787 24.5808 20.6067 23.6616 20.2039L23.2892 20.0312L22.8936 22.4572C23.5567 22.7557 24.7786 23.0207 26.0471 23.0323C29.014 23.0323 30.9456 21.5836 30.9685 19.3416C30.9798 18.1113 30.2241 17.1686 28.595 16.3983C27.606 15.9038 27.0004 15.5704 27.0004 15.0645C27.012 14.6045 27.5126 14.1334 28.629 14.1334C29.5483 14.1103 30.2236 14.3287 30.7353 14.5472L30.991 14.662L31.3756 12.3283Z"
            fill="#00579F" />
        <path
            d="M35.1345 19.0426C35.3674 18.4217 36.2634 16.0188 36.2634 16.0188C36.2517 16.0419 36.4958 15.3865 36.6355 14.9841L36.8331 15.9153C36.8331 15.9153 37.3685 18.5022 37.4848 19.0426C37.0429 19.0426 35.693 19.0426 35.1345 19.0426ZM38.6249 12.064H36.4377C35.7632 12.064 35.2508 12.2593 34.9598 12.9606L30.7598 22.871H33.7267C33.7267 22.871 34.2151 21.5372 34.3201 21.2499C34.6456 21.2499 37.5318 21.2499 37.9505 21.2499C38.0317 21.6293 38.2879 22.871 38.2879 22.871H40.906L38.6249 12.064Z"
            fill="#00579F" />
        <path
            d="M15.9362 12.064L13.167 19.4334L12.8644 17.9388C12.3525 16.2142 10.7469 14.3405 8.95508 13.4088L11.4915 22.8597H14.4816L18.9261 12.064H15.9362Z"
            fill="#00579F" />
        <path
            d="M10.5959 12.064H6.04654L6 12.2823C9.54877 13.1792 11.899 15.3409 12.8647 17.9393L11.8757 12.9724C11.7129 12.2822 11.2125 12.0867 10.5959 12.064Z"
            fill="#FAA61A" />
    </g>
</svg>