<svg width="53" height="53" viewBox="0 0 53 53" fill="none" xmlns="http://www.w3.org/2000/svg">
    <g style="mix-blend-mode:lighten" clip-path="url(#clip0_156_845)">
        <path d="M53 53H0V0H53V53ZM2.52381 50.4762H50.4762V2.52381H2.52381V50.4762Z" fill="white" fill-opacity="0.6" />
        <path fill-rule="evenodd" clip-rule="evenodd"
            d="M36.8731 16.0514C34.1222 13.3004 30.4626 11.7861 26.5507 11.7861C18.525 11.7861 11.9631 18.3228 11.9631 26.3738C11.9631 28.948 12.6445 31.4466 13.9064 33.6676L11.8369 41.2138L19.5598 39.1947C21.6798 40.3557 24.0774 40.9614 26.5255 40.9614C34.5512 40.9614 41.1131 34.4247 41.1131 26.3738C41.1131 22.4871 39.5988 18.8023 36.8479 16.0514H36.8731ZM26.5507 38.488C24.3802 38.488 22.235 37.9076 20.3926 36.7971L19.9383 36.5447L15.345 37.7561L16.5817 33.289L16.3041 32.8347C15.0926 30.9166 14.4617 28.6704 14.4617 26.3738C14.4617 19.6857 19.9131 14.2595 26.576 14.2595C29.8064 14.2595 32.8602 15.5214 35.1317 17.818C37.4031 20.1147 38.6902 23.1433 38.6902 26.399C38.6902 33.0871 33.2388 38.5133 26.576 38.5133L26.5507 38.488ZM33.2136 29.4276C32.8602 29.2509 31.0683 28.3676 30.715 28.2414C30.3869 28.1152 30.1345 28.0647 29.9074 28.418C29.655 28.7714 28.9736 29.6042 28.7464 29.8566C28.5445 30.109 28.3174 30.1342 27.9641 29.9576C27.6107 29.7809 26.4245 29.4023 25.0364 28.1404C23.9512 27.1814 23.2193 25.9699 23.0174 25.6166C22.8155 25.2633 23.0174 25.0614 23.1688 24.8847C23.5726 24.4052 23.9512 23.8752 24.0774 23.648C24.2036 23.3957 24.1279 23.1938 24.0522 23.0171C23.9512 22.8404 23.2445 21.0485 22.9417 20.3166C22.6388 19.6099 22.336 19.7109 22.1341 19.6857C21.9322 19.6857 21.6798 19.6857 21.4274 19.6857C21.175 19.6857 20.7964 19.7866 20.4683 20.1399C20.1402 20.4933 19.1812 21.3766 19.1812 23.1685C19.1812 24.9604 20.4936 26.7018 20.6702 26.929C20.8469 27.1561 23.2445 30.8409 26.9041 32.4309C27.7622 32.8095 28.4436 33.0366 28.9736 33.188C29.8569 33.4657 30.6393 33.4152 31.2702 33.3395C31.9769 33.2385 33.4155 32.4561 33.7183 31.598C34.0212 30.7399 34.0212 30.008 33.9202 29.8566C33.8193 29.7052 33.5921 29.6042 33.2136 29.4276Z"
            fill="white" fill-opacity="0.6" />
    </g>
    <defs>
        <clipPath id="clip0_156_845">
            <rect width="53" height="53" fill="white" />
        </clipPath>
    </defs>
</svg>